{"title":"Highlander.1986.DC.1080p.BDRip.x264.Iou1","uid":9132917,"size":1923249085,"categoryP":"video","categoryS":"hd___movies","magnet":"?xt=urn:btih:9f1cdfd0419e230ec571ae83812c4c61cbea157f&amp;dn=Highlander.1986.DC.1080p.BDRip.x264.Iou1&amp;tr=udp%3A%2F%2Ftracker.openbittorrent.com%3A80&amp;tr=udp%3A%2F%2Fopen.demonii.com%3A1337&amp;tr=udp%3A%2F%2Ftracker.coppersurfer.tk%3A6969&amp;tr=udp%3A%2F%2Fexodus.desync.com%3A6969","seeders":1,"leechers":0,"uploader":"jaybee211","files":-1,"time":1383357844,"description":"Genre                                    : Action/Adventure/Fantasy\nFormat                                   : MPEG-4\nFormat profile                           : Base Media / Version 2\nCodec ID                                 : mp42\nFile size                                : 1.79 GiB\nDuration                                 : 1h 56mn\nOverall bit rate mode                    : Variable\nOverall bit rate                         : 2 198 Kbps\n\nVideo\nID                                       : 1\nFormat                                   : AVC\nFormat/Info                              : Advanced Video Codec\nFormat profile                           : &lt;a class=&quot;__cf_email__&quot; href=&quot;/cdn-cgi/l/email-protection&quot; data-cfemail=&quot;672f0e000f272b524957&quot;&gt;[email&amp;#160;protected]&lt;/a&gt;&lt;script cf-hash='f9e31' type=&quot;text/javascript&quot;&gt;\n/* &lt;![CDATA[ */!function(){try{var t=&quot;currentScript&quot;in document?document.currentScript:function(){for(var t=document.getElementsByTagName(&quot;script&quot;),e=t.length;e--;)if(t[e].getAttribute(&quot;cf-hash&quot;))return t[e]}();if(t&amp;&amp;t.previousSibling){var e,r,n,i,c=t.previousSibling,a=c.getAttribute(&quot;data-cfemail&quot;);if(a){for(e=&quot;&quot;,r=parseInt(a.substr(0,2),16),n=2;a.length-n;n+=2)i=parseInt(a.substr(n,2),16)^r,e+=String.fromCharCode(i);e=document.createTextNode(e),c.parentNode.replaceChild(e,c)}}}catch(u){}}();/* ]]&gt; */&lt;/script&gt;\nFormat settings, CABAC                   : Yes\nFormat settings, ReFrames                : 5 frames\nCodec ID                                 : avc1\nCodec ID/Info                            : Advanced Video Coding\nDuration                                 : 1h 56mn\nBit rate mode                            : Variable\nBit rate                                 : 2 000 Kbps\nWidth                                    : 1 920 pixels\nHeight                                   : 1 040 pixels\nDisplay aspect ratio                     : 1.85:1\nFrame rate mode                          : Variable\nFrame rate                               : 24.000 fps\nMinimum frame rate                       : 16.667 fps\nMaximum frame rate                       : 50.000 fps\nColor space                              : YUV\nChroma subsampling                       : 4:2:0\nBit depth                                : 8 bits\nScan type                                : Progressive\nBits/(Pixel*Frame)                       : 0.042\nStream size                              : 1.63 GiB (91%)\nWriting library                          : x264 core 130 r2273 b3065e6\n\nAudio\nID                                       : 2\nFormat                                   : AAC\nFormat/Info                              : Advanced Audio Codec\nFormat profile                           : LC\nCodec ID                                 : 40\nDuration                                 : 1h 56mn\nBit rate mode                            : Variable\nBit rate                                 : 192 Kbps\nMaximum bit rate                         : 272 Kbps\nChannel(s)                               : 6 channels\nChannel positions                        : Front: L C R, Side: L R, LFE\nSampling rate                            : 48.0 KHz\nCompression mode                         : Lossy\nDelay relative to video                  : 83ms\nStream size                              : 161 MiB (9%)\nLanguage                                 : English\nSubtitles                                : None\n\nIMDB. &lt;a href=&quot; http://www.imdb.com/title/tt0091203/&quot; rel=&quot;nofollow&quot; target=&quot;_NEW&quot;&gt; http://www.imdb.com/title/tt0091203/&lt;/a&gt;\n\nStoryline.\nBorn in the Highlands of Scotland in 1518, Connor Macleod is immortal. When he is wounded in battle but does not die, he is banished from his village. He meets another like himself, Ramirez, who teaches him swordsmanship--the only way to kill another immortal is to take his head--and the ways of the immortals. Modern-day New York is the location of &quot;The Gathering,&quot; where Connor and the few remaining immortals must battle to the last for &quot;The Prize.&quot;\n\nSreens. &lt;a href=&quot; http://img21.imageshack.us/img21/7520/almm.png&quot; rel=&quot;nofollow&quot; target=&quot;_NEW&quot;&gt; http://img21.imageshack.us/img21/7520/almm.png&lt;/a&gt;\n\n        &lt;a href=&quot; http://img822.imageshack.us/img822/5445/gq2i.png&quot; rel=&quot;nofollow&quot; target=&quot;_NEW&quot;&gt; http://img822.imageshack.us/img822/5445/gq2i.png&lt;/a&gt;\n\n        &lt;a href=&quot; http://img819.imageshack.us/img819/8789/eqb0.png&quot; rel=&quot;nofollow&quot; target=&quot;_NEW&quot;&gt; http://img819.imageshack.us/img819/8789/eqb0.png&lt;/a&gt;\n\n        &lt;a href=&quot; http://img820.imageshack.us/img820/8496/3w3y.png&quot; rel=&quot;nofollow&quot; target=&quot;_NEW&quot;&gt; http://img820.imageshack.us/img820/8496/3w3y.png&lt;/a&gt;\n\n        &lt;a href=&quot; http://img843.imageshack.us/img843/602/mo4o.png&quot; rel=&quot;nofollow&quot; target=&quot;_NEW&quot;&gt; http://img843.imageshack.us/img843/602/mo4o.png&lt;/a&gt;\n\nEnjoy.","torrent":{"xt":"urn:btih:9f1cdfd0419e230ec571ae83812c4c61cbea157f","amp;dn":"Highlander.1986.DC.1080p.BDRip.x264.Iou1","amp;tr":["udp%3A%2F%2Ftracker.openbittorrent.com%3A80","udp%3A%2F%2Fopen.demonii.com%3A1337","udp%3A%2F%2Ftracker.coppersurfer.tk%3A6969","udp%3A%2F%2Fexodus.desync.com%3A6969"],"infoHash":"9f1cdfd0419e230ec571ae83812c4c61cbea157f","infoHashBuffer":{"type":"Buffer","data":[159,28,223,208,65,158,35,14,197,113,174,131,129,44,76,97,203,234,21,127]},"announce":[],"urlList":[]}}